<svg xmlns="http://www.w3.org/2000/svg" viewBox="0 0 123 152" role="img" aria-label="VitaBahn">
<g fill="none" stroke-linecap="round" stroke-linejoin="round" stroke-width="4">
  <path d="M38 34 V86 C38 98 46 100 46 111 C46 127 29 129 22 139 H14" stroke="#0D4D47"/>
  <path d="M44 122 C40.5 126 38 130 37.5 136" stroke="#0D4D47" stroke-width="3.2"/>
  <path d="M61.5 28 V140" stroke="#6D948C"/>
  <path d="M85 34 V86 C85 98 77 100 77 111 C77 127 94 129 101 139 H109" stroke="#C8A86E"/>
  <path d="M79 122 C82.5 126 85 130 85.5 136" stroke="#C8A86E" stroke-width="3.2"/>
</g>
<path d="M56 140 L67 140 L65 143.6 L58 143.6 Z" fill="#6D948C"/>
<circle cx="38" cy="26" r="7" fill="#0D4D47"/>
<circle cx="61.5" cy="20" r="7" fill="#6D948C"/>
<circle cx="85" cy="26" r="7" fill="#C8A86E"/>
<circle cx="50" cy="71" r="2.2" fill="#0D4D47"/><circle cx="50.4" cy="81" r="2.2" fill="#0D4D47"/><circle cx="50.8" cy="91" r="2.2" fill="#0D4D47"/><circle cx="51.2" cy="101" r="2.2" fill="#0D4D47"/><circle cx="51.6" cy="111" r="2.2" fill="#0D4D47"/>
<circle cx="33" cy="92" r="2.2" fill="#0D4D47"/><circle cx="33.6" cy="101" r="2.2" fill="#0D4D47"/><circle cx="34.2" cy="110" r="2.2" fill="#0D4D47"/><circle cx="34.8" cy="119" r="2.2" fill="#0D4D47"/>
<circle cx="73" cy="71" r="2.2" fill="#C8A86E"/><circle cx="72.6" cy="81" r="2.2" fill="#C8A86E"/><circle cx="72.2" cy="91" r="2.2" fill="#C8A86E"/><circle cx="71.8" cy="101" r="2.2" fill="#C8A86E"/><circle cx="71.4" cy="111" r="2.2" fill="#C8A86E"/>
<circle cx="90" cy="92" r="2.2" fill="#C8A86E"/><circle cx="89.4" cy="101" r="2.2" fill="#C8A86E"/><circle cx="88.8" cy="110" r="2.2" fill="#C8A86E"/><circle cx="88.2" cy="119" r="2.2" fill="#C8A86E"/>
</svg>
